<?xml version="1.0" encoding="UTF-8"?> <svg xmlns="http://www.w3.org/2000/svg" width="20" height="20" viewBox="0 0 20 20" fill="none"> <path fill-rule="evenodd" clip-rule="evenodd" d="M10 20C15.5228 20 20 15.5228 20 10C20 4.47715 15.5228 0 10 0C4.47715 0 0 4.47715 0 10C0 15.5228 4.47715 20 10 20ZM15.7876 13.9322H14.3338C13.9419 13.9322 13.7431 13.7104 13.3046 13.221C13.1272 13.023 12.9105 12.7812 12.626 12.4926C11.765 11.6598 11.3839 11.5469 11.1722 11.5469C10.8758 11.5469 10.7911 11.6316 10.7911 12.0409V13.3536C10.7911 13.7064 10.6782 13.9181 9.74665 13.9181C8.20819 13.9181 6.50035 12.9866 5.30064 11.2505C3.494 8.70995 3 6.80451 3 6.40931C3 6.1976 3.08469 6 3.494 6H4.94778C5.31475 6 5.45589 6.16937 5.59704 6.56457C6.31687 8.63938 7.51658 10.4601 8.01058 10.4601C8.19407 10.4601 8.27876 10.3754 8.27876 9.90966V7.76429C8.24391 7.15449 8.03163 6.8888 7.87422 6.69178C7.77659 6.56959 7.70007 6.47381 7.70007 6.33874C7.70007 6.16937 7.84121 6 8.06704 6H10.3536C10.6641 6 10.777 6.16937 10.777 6.53634V9.42978C10.777 9.7403 10.9181 9.85321 11.0028 9.85321C11.1863 9.85321 11.3416 9.74029 11.6803 9.40155C12.7248 8.23006 13.4728 6.42343 13.4728 6.42343C13.5716 6.21171 13.741 6.01411 14.108 6.01411H15.5617C15.9993 6.01411 16.0981 6.23994 15.9993 6.55046C15.8158 7.39732 14.0374 9.90966 14.0374 9.90966C13.8821 10.1637 13.8257 10.2766 14.0374 10.5589C14.1139 10.6633 14.2762 10.8225 14.4617 11.0045C14.6525 11.1917 14.8678 11.403 15.0395 11.6034C15.6605 12.3091 16.1404 12.9019 16.2675 13.3112C16.4086 13.7205 16.1969 13.9322 15.7876 13.9322Z" fill="white"></path> </svg> 